<svg width="80" height="80" viewBox="0 0 80 80" fill="none" xmlns="http://www.w3.org/2000/svg">
<path d="M63.3333 13.3333H16.6667C12.9667 13.3333 10 16.3333 10 20V60C10 63.6667 12.9667 66.6667 16.6667 66.6667H63.3333C67 66.6667 70 63.6667 70 60V20C70 16.3333 67 13.3333 63.3333 13.3333ZM34.1667 50C32.8 50 31.6667 48.8667 31.6667 47.5V43.3333H25V47.5C25 48.8667 23.8667 50 22.5 50C21.1333 50 20 48.8667 20 47.5V32.5C20 31.1333 21.1333 30 22.5 30C23.8667 30 25 31.1333 25 32.5V38.3333H31.6667V32.5C31.6667 31.1333 32.8 30 34.1667 30C35.5333 30 36.6667 31.1333 36.6667 32.5V47.5C36.6667 48.8667 35.5333 50 34.1667 50ZM60 46.6667C60 48.5 58.5 50 56.6667 50H54.1667V52.5C54.1667 53.8667 53.0333 55 51.6667 55C50.3 55 49.1667 53.8667 49.1667 52.5V50H46.6667C44.8333 50 43.3333 48.5 43.3333 46.6667V33.3333C43.3333 31.5 44.8333 30 46.6667 30H56.6667C58.5 30 60 31.5 60 33.3333V46.6667ZM48.3333 45H55V35H48.3333V45Z" fill="#333333"/>
</svg>
