<svg width="50" height="50" viewBox="0 0 50 50" fill="none" xmlns="http://www.w3.org/2000/svg">
<path d="M6.25001 12.5C5.10417 12.5 4.16667 13.4375 4.16667 14.5833V41.6667C4.16667 43.9583 6.04167 45.8333 8.33334 45.8333H35.4167C36.5625 45.8333 37.5 44.8958 37.5 43.75C37.5 42.6042 36.5625 41.6667 35.4167 41.6667H10.4167C9.27084 41.6667 8.33334 40.7292 8.33334 39.5833V14.5833C8.33334 13.4375 7.39584 12.5 6.25001 12.5ZM41.6667 4.16667H16.6667C14.375 4.16667 12.5 6.04167 12.5 8.33333V33.3333C12.5 35.625 14.375 37.5 16.6667 37.5H41.6667C43.9583 37.5 45.8333 35.625 45.8333 33.3333V8.33333C45.8333 6.04167 43.9583 4.16667 41.6667 4.16667ZM25 30.2083V11.4583L36.3958 20C36.9583 20.4167 36.9583 21.25 36.3958 21.6667L25 30.2083Z" fill="#333333"/>
</svg>
